<svg xmlns="http://www.w3.org/2000/svg" viewBox="0 0 86.3 24.29">
    <defs>
        <style>.cls-1{fill:#00682c;stroke:#00682c;stroke-linecap:round;stroke-linejoin:round;stroke-width:3.69px;}.cls-1,.cls-2{fill-rule:evenodd;}.cls-2{fill:#fff;}</style>
    </defs>
    <g id="Layer_2" data-name="Layer 2">
        <g id="make">
            <path class="cls-1" d="M72.69,9a1.47,1.47,0,0,0-.84-.22c-1.4.08-2.76,3.45-2.7,6.69,0,.92.37,1.32,1.08,1.19a1.9,1.9,0,0,0,1.22-.92,5.4,5.4,0,0,1,.12-.74l1.12-6Zm8.84,5.59c-.2,1,0,1.28.47,1.38a1.37,1.37,0,0,0,1-.38l-.16.53c-.53,1.87-1.68,2.39-2.63,2.44a2.24,2.24,0,0,1-2.46-1.58,4.1,4.1,0,0,1-3.11,1.88c-1.75.09-2.56-.59-2.92-1.32a4.17,4.17,0,0,1-3,1.77,2.83,2.83,0,0,1-3.19-3c-.1-4.35,1.53-9.08,5.9-9.31A2.54,2.54,0,0,1,73,7.25l4-.75L75.4,14.87a4.37,4.37,0,0,0-.07.66c0,.32.14.79,1,.62a2.8,2.8,0,0,0,1.32-.85c0-.22,0-.44.09-.67L79,8l-1.1,0,.27-1.46,1.09-.06.62-3.19,3.94-.75-.07.38s-.28,1.42-.64,3.35l1.37-.07L84.2,7.69l-1.38.07-1.29,6.78ZM31.71,11.12a1.48,1.48,0,0,0-.84-.21c-1.41.07-2.62,3.49-2.7,6.68,0,.93.54,1.28,1.09,1.2a1.7,1.7,0,0,0,1.2-.93,5.53,5.53,0,0,1,.12-.73l1.13-6Zm15.35,6.67a2.79,2.79,0,0,0,1-.4l-.16.53c-.52,1.89-1.61,2.39-2.59,2.44a2.37,2.37,0,0,1-2.73-2.5,8.36,8.36,0,0,1,.17-1.37l.78-4.2c.19-1,.16-1.58-.76-1.6a2.6,2.6,0,0,0-1.2.45l-1.77,9.52-3.85.2.22-1.2A3.48,3.48,0,0,1,33.66,21c-1.75.09-2.56-.59-2.92-1.33a4.15,4.15,0,0,1-3,1.78A2.7,2.7,0,0,1,24.92,20a3.84,3.84,0,0,1-2.79,1.59c-1.58.08-2.63-.47-3-1.55A4.45,4.45,0,0,1,16,21.92c-2,.11-3.17-.82-3.21-2.61a5.75,5.75,0,0,1,.12-1.24l1.46-7.73,3.95-.75L16.74,18a4.34,4.34,0,0,0-.08.67c0,.32.19.71.9.56a3.86,3.86,0,0,0,1.37-.78,4.77,4.77,0,0,1,.12-.69L20.5,10l4-.74-1.59,8.38a4.36,4.36,0,0,0-.07.67c0,.32.05.77.82.66a2.37,2.37,0,0,0,.94-.47.38.38,0,0,1,0-.1c-.1-4.34,1.61-9.07,5.85-9.3A3,3,0,0,1,32,9.42l4-.74L34.41,17a3.39,3.39,0,0,0-.07.67c0,.32.24.74,1.06.55a2.61,2.61,0,0,0,1.18-.72l1.59-8.47,3.93-.74-.19,1.06A4.51,4.51,0,0,1,44.5,8.34a2.8,2.8,0,0,1,3,3.52s-1,5.14-1,5.41.06.55.6.52ZM58,1.86c-5,.27-8.27,3.6-8.2,6.7,0,1.7.92,2.44,2.78,2.34h.28a6.41,6.41,0,0,1-.39-1.81,5.45,5.45,0,0,1,5.84-5.67c2.45,0,3.22,1.83,3.27,4.11.09,4.59-1.82,9.84-4.2,10a1.79,1.79,0,0,1-1-.27L58.69,4.69l-3.93.74L52.06,19.7,52,20l3.84-.2.13-.73a4.18,4.18,0,0,0,2.66.88c3.53-.19,6.76-5.8,6.62-12-.09-4.31-2.7-6.35-7.27-6.11ZM12.66,7.27l.53.06a21.3,21.3,0,0,0,3.67.27C18.55,7.51,18.94,6,19.14,5c.05-.23.24-1.16.24-1.16l-.5.23a8.4,8.4,0,0,1-2.68.48c-1.35.07-2.88,0-4.1,0-.8,0-1.82,0-2.2,0-5.5.15-8.13,3.25-8.06,6.69,0,1.69,1.26,3.07,3.53,2.3a3.12,3.12,0,0,1-.57-1.79A4.12,4.12,0,0,1,8.92,7L6,22.45l3.83-.2Z" />
            <path class="cls-2" d="M72.69,9a1.47,1.47,0,0,0-.84-.22c-1.4.08-2.76,3.45-2.7,6.69,0,.92.37,1.32,1.08,1.19a1.9,1.9,0,0,0,1.22-.92,5.4,5.4,0,0,1,.12-.74l1.12-6Zm8.84,5.59c-.2,1,0,1.28.47,1.38a1.37,1.37,0,0,0,1-.38l-.16.53c-.53,1.87-1.68,2.39-2.63,2.44a2.24,2.24,0,0,1-2.46-1.58,4.1,4.1,0,0,1-3.11,1.88c-1.75.09-2.56-.59-2.92-1.32a4.17,4.17,0,0,1-3,1.77,2.83,2.83,0,0,1-3.19-3c-.1-4.35,1.53-9.08,5.9-9.31A2.54,2.54,0,0,1,73,7.25l4-.75L75.4,14.87a4.37,4.37,0,0,0-.07.66c0,.32.14.79,1,.62a2.8,2.8,0,0,0,1.32-.85c0-.22,0-.44.09-.67L79,8l-1.1,0,.27-1.46,1.09-.06.62-3.19,3.94-.75-.07.38s-.28,1.42-.64,3.35l1.37-.07L84.2,7.69l-1.38.07-1.29,6.78ZM31.71,11.12a1.48,1.48,0,0,0-.84-.21c-1.41.07-2.62,3.49-2.7,6.68,0,.93.54,1.28,1.09,1.2a1.7,1.7,0,0,0,1.2-.93,5.53,5.53,0,0,1,.12-.73l1.13-6Zm15.35,6.67a2.79,2.79,0,0,0,1-.4l-.16.53c-.52,1.89-1.61,2.39-2.59,2.44a2.37,2.37,0,0,1-2.73-2.5,8.36,8.36,0,0,1,.17-1.37l.78-4.2c.19-1,.16-1.58-.76-1.6a2.6,2.6,0,0,0-1.2.45l-1.77,9.52-3.85.2.22-1.2A3.48,3.48,0,0,1,33.66,21c-1.75.09-2.56-.59-2.92-1.33a4.15,4.15,0,0,1-3,1.78A2.7,2.7,0,0,1,24.92,20a3.84,3.84,0,0,1-2.79,1.59c-1.58.08-2.63-.47-3-1.55A4.45,4.45,0,0,1,16,21.92c-2,.11-3.17-.82-3.21-2.61a5.75,5.75,0,0,1,.12-1.24l1.46-7.73,3.95-.75L16.74,18a4.34,4.34,0,0,0-.08.67c0,.32.19.71.9.56a3.86,3.86,0,0,0,1.37-.78,4.77,4.77,0,0,1,.12-.69L20.5,10l4-.74-1.59,8.38a4.36,4.36,0,0,0-.07.67c0,.32.05.77.82.66a2.37,2.37,0,0,0,.94-.47.38.38,0,0,1,0-.1c-.1-4.34,1.61-9.07,5.85-9.3A3,3,0,0,1,32,9.42l4-.74L34.41,17a3.39,3.39,0,0,0-.07.67c0,.32.24.74,1.06.55a2.61,2.61,0,0,0,1.18-.72l1.59-8.47,3.93-.74-.19,1.06A4.51,4.51,0,0,1,44.5,8.34a2.8,2.8,0,0,1,3,3.52s-1,5.14-1,5.41.06.55.6.52ZM58,1.86c-5,.27-8.27,3.6-8.2,6.7,0,1.7.92,2.44,2.78,2.34h.28a6.41,6.41,0,0,1-.39-1.81,5.45,5.45,0,0,1,5.84-5.67c2.45,0,3.22,1.83,3.27,4.11.09,4.59-1.82,9.84-4.2,10a1.79,1.79,0,0,1-1-.27L58.69,4.69l-3.93.74L52.06,19.7,52,20l3.84-.2.13-.73a4.18,4.18,0,0,0,2.66.88c3.53-.19,6.76-5.8,6.62-12-.09-4.31-2.7-6.35-7.27-6.11ZM12.66,7.27l.53.06a21.3,21.3,0,0,0,3.67.27C18.55,7.51,18.94,6,19.14,5c.05-.23.24-1.16.24-1.16l-.5.23a8.4,8.4,0,0,1-2.68.48c-1.35.07-2.88,0-4.1,0-.8,0-1.82,0-2.2,0-5.5.15-8.13,3.25-8.06,6.69,0,1.69,1.26,3.07,3.53,2.3a3.12,3.12,0,0,1-.57-1.79A4.12,4.12,0,0,1,8.92,7L6,22.45l3.83-.2Z" />
        </g>
    </g>
</svg>